<?xml version="1.0" standalone="no"?>
<!DOCTYPE svg PUBLIC "-//W3C//DTD SVG 20010904//EN"
 "http://www.w3.org/TR/2001/REC-SVG-20010904/DTD/svg10.dtd">
<svg version="1.0" xmlns="http://www.w3.org/2000/svg"
 width="16.000000pt" height="16.000000pt" viewBox="0 0 16.000000 16.000000"
 preserveAspectRatio="xMidYMid meet">
<metadata>
Created by potrace 1.11, written by Peter Selinger 2001-2013
</metadata>
<g transform="translate(0.000000,16.000000) scale(0.006400,-0.006400)"
fill="#000000" stroke="none">
<path d="M740 2131 l-515 -297 0 -608 0 -608 509 -294 c280 -162 515 -294 523
-294 7 0 245 134 528 297 l515 298 0 601 0 601 -502 290 c-277 160 -512 295
-523 301 -18 9 -92 -31 -535 -287z m989 -101 l460 -265 -2 -539 -2 -539 -464
-268 c-346 -200 -468 -266 -480 -259 -9 5 -218 125 -466 268 l-450 260 0 538
0 538 465 268 c255 147 468 267 471 266 4 -2 214 -122 468 -268z"/>
<path d="M985 1340 c-132 -281 -241 -514 -243 -519 -4 -11 90 -53 98 -44 4 4
102 209 217 455 l210 446 198 -431 c108 -238 201 -436 206 -441 8 -9 99 24 99
36 0 3 -103 231 -229 505 l-229 498 -44 3 -43 3 -240 -511z"/>
</g>
</svg>
